<?xml version="1.0" encoding="UTF-8"?>
<svg width="1923px" height="465px" viewBox="0 0 1923 465" version="1.1" xmlns="http://www.w3.org/2000/svg" xmlns:xlink="http://www.w3.org/1999/xlink">
    <!-- Generator: Sketch 57.1 (83088) - https://sketch.com -->
    <title>Group 2</title>
    <desc>Created with Sketch.</desc>
    <g id="Symbols" stroke="none" stroke-width="1" fill="none" fill-rule="evenodd">
        <g id="footer" transform="translate(0.000000, -42.000000)">
            <g id="Group-2" transform="translate(0.000000, 43.000000)">
                <ellipse id="Oval" stroke="#6EC410" opacity="0.200000003" cx="817.005243" cy="228.997399" rx="561.995527" ry="228.997399"></ellipse>
                <path d="M1824.77261,357.995934 C1859.1095,357.995934 1922.33962,372.007859 1921.99435,351.981203 C1920.5034,265.5 1921.55354,136.274808 1921.99435,85.0082889 C1890.77525,81.1006518 1859.09327,78.9991027 1824.77261,78.9991027 C1637.67362,78.9991027 1485.99992,141.454671 1485.99992,218.497518 C1485.99992,295.540366 1637.67362,357.995934 1824.77261,357.995934 Z" id="Oval-Copy" stroke="#6EC410" opacity="0.200000003"></path>
                <path d="M816.005243,20 C1126.3868,20 1378.00077,122.525628 1378.00077,248.997399 C1378.00077,346.694805 1227.85482,430.102796 1016.45843,462.998951 L615.552052,462.998951 C574.508715,456.61205 535.774248,448.321076 499.999252,438.391132 L499.999252,59.6036655 C590.043923,34.610273 698.837286,20 816.005243,20 Z M1822.99723,98.9991027 C1857.07812,98.9991027 1889.9809,101.08091 1920.99974,104.953217 L1920.99974,372.041819 C1889.9809,375.914126 1857.07812,377.995934 1822.99723,377.995934 C1636.32647,377.995934 1484.99992,315.540366 1484.99992,238.497518 C1484.99992,161.454671 1636.32647,98.9991027 1822.99723,98.9991027 Z" id="Combined-Shape" fill="#7CCA0E" opacity="0.200000003"></path>
                <path d="M0,47.1368421 C202.764694,9.62105262 369.431361,9.62105262 500,47.1368421 C695.852959,103.410526 727.5,221.390743 1119.5,129.287669 C1380.83333,67.8856198 1648.33331,103.718507 1921.99992,236.78633 L1921.99992,463.091252 L0,463 L0,47.1368421 Z" id="Footer" fill="#00C853"></path>
            </g>
        </g>
    </g>
</svg>