<?xml version="1.0" encoding="UTF-8"?>
<svg width="2012px" height="966px" viewBox="0 0 2012 966" version="1.1" xmlns="http://www.w3.org/2000/svg" xmlns:xlink="http://www.w3.org/1999/xlink">
    <!-- Generator: Sketch 49.3 (51167) - http://www.bohemiancoding.com/sketch -->
    <title>Artboard</title>
    <desc>Created with Sketch.</desc>
    <defs>
        <linearGradient x1="56.9160059%" y1="94.5305181%" x2="45.4236578%" y2="16.8516299%" id="linearGradient-1">
            <stop stop-color="#3B0476" offset="0%"></stop>
            <stop stop-color="#1056CB" offset="100%"></stop>
        </linearGradient>
    </defs>
    <g id="Artboard" stroke="none" stroke-width="1" fill="none" fill-rule="evenodd">
        <path d="M-128.021234,1468.62831 C-128.021234,1385.47893 114.200436,1368.54621 295.347689,1362.4095 C512.687136,1355.04672 772.211446,1416.37533 988.448011,1434.08872 C1113.23029,1444.69097 1343.32648,1457.97395 1511.57722,1440.16175 C1778.66388,1411.8861 2040.29087,1324.89635 2109.15537,1207.8854 C2135.79991,1162.16787 2106.94916,1078.84356 2128.03478,1029.77915 C2143.62346,993.370891 2149.12614,883.350833 2150.59347,865.065971 C2153.51796,828.606643 2157.64273,749.678437 2155.19541,712.133088 C2154.3869,699.73364 2148.4301,688.4069 2147.92435,675.979033 C2147.57329,667.353195 2151.67241,658.799899 2152.67355,650.126543 C2153.80326,640.337189 2154.29288,630.500919 2154.30263,620.722746 C2154.34199,581.259121 2155.18706,541.659181 2152.82081,502.483791 C2150.38126,462.114826 2132.43757,269.181456 2123.87463,203.017231 C2120.4099,176.279542 2127.24808,143.307509 2111.41258,123.442374 C2102.61501,112.436863 2101.60828,153.334679 2096.12495,168.097466 C2094.91704,171.347381 2093.2665,174.481051 2091.37575,177.42147 C2086.57062,184.889481 2082.14726,192.780632 2076.08812,199.225268 C2058.88727,217.481575 2041.23121,235.435206 2021.91412,251.038563 C1935.65349,320.063764 1983.40812,-44.3240144 1893.16966,16.5099314 C1840.43575,51.60197 1240.83035,98.9266336 868.206189,88.1608911 C495.58203,77.3951486 98.2084075,179.374099 -118.796341,218.299811 C-396.532659,268.119385 -181.298766,657.297647 -231.200013,669.140832 C-260.062891,675.940341 -225.669965,942.436166 -128.021234,1468.62831 Z" id="Path-2-Copy" fill="url(#linearGradient-1)" transform="translate(945.939848, 739.128308) scale(1, -1) rotate(4.000000) translate(-945.939848, -739.128308) "></path>
    </g>
</svg>